<svg version="1.0" xmlns="http://www.w3.org/2000/svg"
 width="18.000000pt" height="18.000000pt" viewBox="0 0 180.000000 180.000000"
 preserveAspectRatio="xMidYMid meet">
  <g transform="translate(0.000000,180.000000) scale(0.100000,-0.100000)"
  fill="#000000" stroke="none">
    <path d="M105 1781 c-48 -22 -69 -44 -90 -94 -13 -32 -15 -134 -15 -789 0
    -709 2 -755 19 -793 22 -48 44 -69 94 -90 32 -13 134 -15 789 -15 709 0 755 2
    793 19 48 22 69 44 90 94 13 32 15 134 15 787 0 653 -2 755 -15 787 -21 50
    -42 72 -90 94 -38 18 -84 19 -795 19 -711 0 -757 -1 -795 -19z m825 -630 l325
    -197 3 -55 3 -54 -93 -56 c-207 -124 -534 -323 -554 -336 -20 -13 -23 -11 -47
    35 l-26 50 295 177 c162 98 294 180 294 184 -1 3 -119 77 -263 163 -144 87
    -276 167 -294 178 l-32 19 25 46 c14 25 29 45 32 44 4 0 153 -89 333 -198z"/>
  </g>
</svg>